<svg xmlns="http://www.w3.org/2000/svg" width="488" height="104" fill="none"><path fill="url(#a)" d="M60.8 101c-3.173-9.147-7.28-20.207-12.32-33.18H16L4.1 101H.6l35-98h7.7l8.68 22.82C64.86 59.607 74.707 84.667 81.52 101H60.8ZM17.12 64.6h30.1L39.66 45c-1.027-2.52-3.733-9.52-8.12-21L17.12 64.6ZM132.928 3c10.174 0 18.947 2.333 26.32 7 7.374 4.667 12.927 10.78 16.66 18.34 3.827 7.467 5.74 15.4 5.74 23.8 0 8.493-1.913 16.473-5.74 23.94-3.826 7.467-9.52 13.487-17.08 18.06-7.56 4.573-16.753 6.86-27.58 6.86h-38.5c.467-16.613.7-32.947.7-49 0-16.147-.233-32.48-.7-49h40.18Zm-9.8 95.06c8.68 0 16.054-2.147 22.12-6.44 6.067-4.387 10.64-10.08 13.72-17.08 3.08-7 4.62-14.513 4.62-22.54 0-7.933-1.54-15.4-4.62-22.4-2.986-7.093-7.466-12.787-13.44-17.08-5.88-4.293-12.926-6.44-21.14-6.44h-12.46c-.373 18.853-.56 34.207-.56 46.06 0 11.76.187 27.067.56 45.92h11.2Zm128.993-35c4.013 1.12 7.467 2.847 10.36 5.18 2.987 2.24 5.413 4.667 7.28 7.28 1.867 2.52 3.92 5.74 6.16 9.66 2.987 4.947 5.553 8.633 7.7 11.06 2.147 2.427 4.947 4.013 8.4 4.76-4.853 1.867-9.66 2.8-14.42 2.8-7.467 0-12.88-2.567-16.24-7.7-1.493-1.773-3.267-5.273-5.32-10.5-1.867-4.387-3.547-7.887-5.04-10.5a24.344 24.344 0 0 0-5.6-7.14c-2.24-2.053-4.993-3.173-8.26-3.36h-22.82c0 9.333.187 21.467.56 36.4h-19.32c.467-16.613.7-32.947.7-49 0-16.147-.233-32.48-.7-49h41.86c8.027 0 14.933 1.54 20.72 4.62 5.787 2.987 10.127 6.907 13.02 11.76 2.987 4.853 4.48 10.033 4.48 15.54 0 6.44-2.053 12.273-6.16 17.5-4.013 5.133-9.8 8.68-17.36 10.64Zm-17.5-1.4c4.947 0 9.147-1.26 12.6-3.78 3.547-2.52 6.207-5.833 7.98-9.94 1.773-4.107 2.66-8.493 2.66-13.16 0-4.947-.98-9.613-2.94-14-1.96-4.387-4.853-7.933-8.68-10.64-3.827-2.707-8.447-4.06-13.86-4.06h-17.64c-.28 12.693-.42 26.46-.42 41.3v14.28h20.3Zm116.196 40.74c-2.707.373-5.647.56-8.82.56-10.92 0-20.394-2.567-28.42-7.7-8.027-5.133-14.14-11.807-18.34-20.02-4.107-8.307-6.16-16.987-6.16-26.04 0-8.587 1.866-16.567 5.6-23.94 3.826-7.467 9.52-13.44 17.08-17.92 7.653-4.573 16.986-6.86 28-6.86 11.013 0 20.486 2.567 28.42 7.7 7.933 5.04 13.953 11.667 18.06 19.88 4.106 8.213 6.16 16.847 6.16 25.9 0 7.84-1.587 15.213-4.76 22.12-3.08 6.907-7.747 12.74-14 17.5-6.16 4.76-13.767 7.7-22.82 8.82Zm-.7-2.1c7.84-1.027 13.813-5.367 17.92-13.02 4.106-7.747 6.16-17.08 6.16-28 0-9.427-1.54-18.573-4.62-27.44-2.987-8.867-7.374-16.007-13.16-21.42-5.787-5.413-12.507-7.887-20.16-7.42-6.44.373-11.854 2.473-16.24 6.3-4.294 3.827-7.514 8.82-9.66 14.98-2.054 6.067-3.08 12.74-3.08 20.02 0 9.147 1.586 18.06 4.76 26.74 3.173 8.68 7.7 15.773 13.58 21.28 5.88 5.507 12.693 8.26 20.44 8.26.84 0 2.193-.093 4.06-.28Zm112.986.7-20.02-28.7c-3.733-5.227-6.487-9.147-8.26-11.76L400.663 101h-5.04l36.96-43.68c-15.68-22.4-28.607-40.507-38.78-54.32h23.8c7.093 9.987 12.88 18.247 17.36 24.78l10.22 14.56L478.363 3h5.04l-35.84 42.56c13.907 19.693 27.253 38.173 40.04 55.44h-24.5Z"/><defs><linearGradient id="a" x1="244.5" x2="244.5" y1="-79.3" y2="137" gradientUnits="userSpaceOnUse"><stop stop-color="#9768FF"/><stop offset="1" stop-color="#E8E1F8"/></linearGradient></defs></svg>