<svg xmlns="http://www.w3.org/2000/svg" width="44" height="44" fill="none"><circle cx="22" cy="22" r="21.5" fill="#fff" stroke="#4E1A8B"/><g clip-path="url(#a)"><mask id="b" width="9" height="9" x="17" y="10" maskUnits="userSpaceOnUse" style="mask-type:luminance"><path fill="#fff" d="M25.83 14.062 21.823 10l-4.011 4.062 4.01 4.062 4.008-4.062Zm-4.007-2.524 2.488 2.52-2.488 2.52-2.488-2.52 2.488-2.52Z"/></mask><g mask="url(#b)"><path fill="url(#c)" d="M25.83 10h-8.018v8.12h8.018V10Z"/></g><mask id="d" width="9" height="9" x="25" y="18" maskUnits="userSpaceOnUse" style="mask-type:luminance"><path fill="#fff" d="m25.624 22.118 4.01 4.062 4.012-4.062-4.011-4.062-4.01 4.062Zm4.01 2.52-2.487-2.52 2.488-2.52 2.488 2.52-2.488 2.52Z"/></mask><g mask="url(#d)"><path fill="url(#e)" d="M33.642 18.056h-8.018v8.12h8.018v-8.12Z"/></g><mask id="f" width="9" height="9" x="10" y="18" maskUnits="userSpaceOnUse" style="mask-type:luminance"><path fill="#fff" d="m18.018 22.118-4.007-4.062L10 22.118l4.01 4.062 4.008-4.062Zm-4.007-2.52 2.488 2.52-2.488 2.52-2.488-2.52 2.488-2.52Z"/></mask><g mask="url(#f)"><path fill="url(#g)" d="M18.018 18.056H10v8.12h8.018v-8.12Z"/></g><mask id="h" width="9" height="9" x="17" y="25" maskUnits="userSpaceOnUse" style="mask-type:luminance"><path fill="#fff" d="M17.812 29.938 21.822 34l4.012-4.062-4.011-4.058-4.011 4.058Zm4.01 2.52-2.487-2.52 2.488-2.52 2.488 2.52-2.488 2.52Z"/></mask><g mask="url(#h)"><path fill="url(#i)" d="M25.83 25.88h-8.018V34h8.018v-8.12Z"/></g><mask id="j" width="17" height="18" x="13" y="13" maskUnits="userSpaceOnUse" style="mask-type:luminance"><path fill="#fff" d="m21.099 23.212-.542-.553-.59-.597.67-.677.541-.549.59-.597.589.597.542.55.668.676-.593.601-.542.549-.668.677-.665-.677Zm5.257-9.13a.687.687 0 0 0-.186.601l-4.407 4.459-4.402-4.459a.687.687 0 0 0-.186-.6.667.667 0 0 0-.95 0 .688.688 0 0 0 0 .96.667.667 0 0 0 .594.189l4.407 4.463-.59.596-4.406-4.462a.687.687 0 0 0-.186-.601.667.667 0 0 0-.95 0 .688.688 0 0 0 0 .961.668.668 0 0 0 .594.189l4.406 4.462-.668.677-4.406-4.462a.687.687 0 0 0-.186-.601.667.667 0 0 0-.95 0 .688.688 0 0 0 0 .961.667.667 0 0 0 .594.188l4.406 4.463-4.406 4.459a.667.667 0 0 0-.594.188.688.688 0 0 0 0 .961.667.667 0 0 0 .95 0 .687.687 0 0 0 .186-.6l4.406-4.463.59.597-4.407 4.463a.667.667 0 0 0-.594.188.688.688 0 0 0 0 .961.667.667 0 0 0 .95 0 .687.687 0 0 0 .186-.6l4.406-4.463.669.677-4.407 4.462a.668.668 0 0 0-.593.189.688.688 0 0 0 0 .961.667.667 0 0 0 .95 0 .687.687 0 0 0 .185-.6l4.406-4.463 4.407 4.462a.687.687 0 0 0 .186.601.667.667 0 0 0 .95 0 .688.688 0 0 0 0-.961.668.668 0 0 0-.594-.189l-4.41-4.462.668-.677 4.406 4.462a.687.687 0 0 0 .186.601.667.667 0 0 0 .95 0 .688.688 0 0 0 0-.961.667.667 0 0 0-.594-.189l-4.406-4.458.59-.597 4.406 4.459a.687.687 0 0 0 .186.6.667.667 0 0 0 .949 0 .688.688 0 0 0 0-.96.667.667 0 0 0-.593-.19l-4.407-4.462L29.05 17.6a.668.668 0 0 0 .594-.188.688.688 0 0 0 0-.961.667.667 0 0 0-.95 0 .687.687 0 0 0-.185.6l-4.403 4.463-.668-.677 4.406-4.462a.668.668 0 0 0 .593-.189.688.688 0 0 0 0-.961.667.667 0 0 0-.949 0 .687.687 0 0 0-.186.6L22.9 20.288l-.59-.596 4.407-4.463a.667.667 0 0 0 .593-.188.688.688 0 0 0 0-.962.67.67 0 0 0-.475-.2.687.687 0 0 0-.478.204Z"/></mask><g mask="url(#j)"><path fill="url(#k)" d="M29.908 13.818H13.623V30.31h16.285V13.818Z"/></g></g><defs><linearGradient id="c" x1="17.812" x2="25.83" y1="14.06" y2="14.06" gradientUnits="userSpaceOnUse"><stop stop-color="#C653FF"/><stop offset="1" stop-color="#2F0A6D"/></linearGradient><linearGradient id="e" x1="25.624" x2="33.643" y1="22.117" y2="22.117" gradientUnits="userSpaceOnUse"><stop stop-color="#C653FF"/><stop offset="1" stop-color="#2F0A6D"/></linearGradient><linearGradient id="g" x1="10" x2="18.018" y1="22.117" y2="22.117" gradientUnits="userSpaceOnUse"><stop stop-color="#C653FF"/><stop offset="1" stop-color="#2F0A6D"/></linearGradient><linearGradient id="i" x1="17.812" x2="25.83" y1="29.938" y2="29.938" gradientUnits="userSpaceOnUse"><stop stop-color="#C653FF"/><stop offset="1" stop-color="#2F0A6D"/></linearGradient><linearGradient id="k" x1="13.687" x2="29.842" y1="22.062" y2="22.062" gradientUnits="userSpaceOnUse"><stop stop-color="#C653FF"/><stop offset="1" stop-color="#2F0A6D"/></linearGradient><clipPath id="a"><path fill="#fff" d="M10 10h23.642v24H10z"/></clipPath></defs></svg>