<svg xmlns="http://www.w3.org/2000/svg" width="183" height="52" fill="none"><g fill="#fff" clip-path="url(#a)"><path d="m34.126 8.652-8.64-8.64-8.638 8.64 8.639 8.639 8.639-8.64Zm-8.64-5.367 5.364 5.367-5.367 5.367-5.367-5.367 5.37-5.367ZM33.681 25.793l8.64 8.639 8.638-8.64-8.639-8.638-8.639 8.639Zm8.64 5.367-5.368-5.367 5.367-5.365 5.369 5.365-5.369 5.367ZM17.285 25.793l-8.639-8.64-8.639 8.64 8.64 8.639 8.638-8.64Zm-8.639-5.365 5.367 5.365-5.38 5.367-5.366-5.367 5.38-5.365ZM16.84 42.44l8.64 8.638 8.639-8.639-8.64-8.639-8.638 8.64Zm8.64 5.366-5.364-5.367 5.367-5.367 5.367 5.367-5.37 5.367Z"/><path d="m41.075 35.173-9.496-9.495 9.494-9.494a1.44 1.44 0 1 0-1.17-1.168l-9.492 9.493-1.44-1.44 9.496-9.493a1.44 1.44 0 1 0-1.17-1.168l-9.496 9.494-1.27-1.273 9.495-9.494a1.44 1.44 0 1 0-1.17-1.168l-9.495 9.496-9.494-9.498a1.44 1.44 0 1 0-1.168 1.168l9.496 9.494-1.273 1.273-9.496-9.496a1.44 1.44 0 1 0-1.168 1.168l9.496 9.494-1.44 1.44-9.494-9.496a1.44 1.44 0 1 0-1.17 1.168l9.494 9.5-9.495 9.495a1.44 1.44 0 1 0 1.17 1.17l9.493-9.496 1.273 1.271-9.496 9.496a1.44 1.44 0 1 0 1.17 1.17l9.496-9.494 1.44 1.44-9.496 9.495a1.44 1.44 0 1 0 1.168 1.168L25.36 31.9l9.495 9.49a1.44 1.44 0 1 0 1.17-1.167l-9.495-9.496 1.44-1.44 9.495 9.496a1.44 1.44 0 1 0 1.17-1.17l-9.496-9.496 1.271-1.268 9.496 9.493a1.44 1.44 0 1 0 1.17-1.17l-.002.002ZM27.969 26.95 26.8 28.118l-1.44 1.44-1.44-1.44-1.17-1.168-1.27-1.272 1.44-1.44 1.17-1.17 1.27-1.27 1.272 1.27 1.168 1.17 1.44 1.44-1.272 1.272Z"/></g><path fill="#fff" d="m64.222 37.017 8.841-23.052h7.123l8.841 23.052h-7.015l-1.933-4.904h-6.944l-1.897 4.904h-7.016Zm9.808-9.736h5.154l-2.577-6.765-2.577 6.765ZM91.754 37.017V13.965h9.986c2.339 0 4.307.394 5.906 1.182 1.599.763 2.816 2.004 3.651 3.722.835 1.695 1.253 3.95 1.253 6.765 0 3.962-.919 6.849-2.756 8.662-1.814 1.814-4.498 2.72-8.054 2.72h-9.986Zm5.762-4.439h3.437c1.241 0 2.279-.179 3.114-.537.859-.381 1.503-1.073 1.933-2.076.453-1.002.68-2.446.68-4.33 0-1.91-.203-3.377-.609-4.403-.382-1.05-1.002-1.778-1.861-2.184-.835-.43-1.921-.644-3.257-.644h-3.437v14.174ZM115.703 37.017V13.965h11.06c2.649 0 4.594.704 5.835 2.112 1.241 1.384 1.861 3.257 1.861 5.62 0 1.551-.406 2.887-1.217 4.009-.787 1.121-1.909 1.933-3.365 2.434.382.31.68.644.895 1.002.239.358.477.835.716 1.432l2.792 6.443h-5.011l-2.721-6.193c-.238-.525-.501-.894-.787-1.11-.286-.214-.764-.321-1.432-.321h-3.794v7.624h-4.832Zm4.832-11.633h4.975c1.265 0 2.255-.275 2.971-.823.716-.573 1.074-1.528 1.074-2.864 0-1.289-.31-2.231-.93-2.828-.621-.596-1.563-.895-2.828-.895h-5.262v7.41ZM147.793 37.375c-7.469 0-11.204-3.926-11.204-11.776 0-4.224.943-7.279 2.828-9.164 1.885-1.885 4.677-2.827 8.376-2.827s6.49.942 8.376 2.827c1.885 1.885 2.827 4.94 2.827 9.164 0 7.85-3.734 11.776-11.203 11.776Zm0-4.117c2.171 0 3.758-.62 4.76-1.86 1.027-1.266 1.54-3.198 1.54-5.8 0-2.887-.513-4.915-1.54-6.084-1.002-1.194-2.589-1.79-4.76-1.79-2.172 0-3.771.596-4.797 1.79-1.002 1.169-1.503 3.197-1.503 6.085 0 2.6.501 4.533 1.503 5.798 1.026 1.241 2.625 1.861 4.797 1.861ZM161.867 37.017l8.232-11.49-8.053-11.562h4.51l5.87 8.555 5.87-8.555h4.546l-8.089 11.562 8.232 11.49h-4.581l-5.978-8.448-5.978 8.448h-4.581Z"/><defs><clipPath id="a"><path fill="#fff" d="M0 0h50.968v51.084H0z"/></clipPath></defs></svg>