<svg width="1173" height="298" viewBox="0 0 1173 298" fill="none" xmlns="http://www.w3.org/2000/svg">
<path d="M133.105 22.0601C165.426 51.7104 167.59 101.948 137.94 134.269C108.289 166.59 58.0518 168.755 25.7308 139.104C-6.59006 109.454 -8.75485 59.2164 20.8956 26.8952C50.5461 -5.42603 100.783 -7.59017 133.105 22.0601Z" fill="url(#paint0_radial_1_2)"/>
<g clip-path="url(#clip0_1_2)">
<path d="M88.3505 61.9621L79.4015 53.0131L70.4525 61.9621L79.4015 70.9111L88.3505 61.9621ZM79.4015 56.4025L84.9573 61.9621L79.3977 67.5216L73.8382 61.9621L79.4015 56.4025Z" fill="white" fill-opacity="0.6"/>
<path d="M87.89 79.7183L96.839 88.6673L105.788 79.7183L96.839 70.7693L87.89 79.7183ZM96.839 85.2779L91.2794 79.7183L96.839 74.1606L102.4 79.7183L96.839 85.2779Z" fill="white" fill-opacity="0.6"/>
<path d="M70.9055 79.7183L61.9565 70.7693L53.0075 79.7183L61.9565 88.6673L70.9055 79.7183ZM61.9565 74.1606L67.5161 79.7183L61.9435 85.2779L56.3839 79.7183L61.9565 74.1606Z" fill="white" fill-opacity="0.6"/>
<path d="M70.445 96.962L79.394 105.911L88.343 96.962L79.394 88.013L70.445 96.962ZM79.394 102.522L73.8382 96.962L79.3977 91.4024L84.9573 96.962L79.394 102.522Z" fill="white" fill-opacity="0.6"/>
<path d="M95.5488 89.4355L85.7124 79.599L95.5469 69.7645C95.8593 69.8191 96.181 69.7727 96.4652 69.6321C96.7495 69.4915 96.9815 69.264 97.1276 68.9825C97.2737 68.7011 97.3264 68.3804 97.2778 68.067C97.2293 67.7536 97.0821 67.4639 96.8577 67.2398C96.6333 67.0157 96.3433 66.869 96.0299 66.821C95.7164 66.7729 95.3958 66.826 95.1146 66.9726C94.8334 67.1192 94.6062 67.3515 94.466 67.636C94.3258 67.9205 94.28 68.2422 94.3351 68.5545L84.5024 78.3891L83.0109 76.8976L92.8473 67.063C93.1597 67.1176 93.4814 67.0713 93.7656 66.9307C94.0498 66.79 94.2819 66.5625 94.428 66.281C94.5741 65.9996 94.6267 65.6789 94.5782 65.3655C94.5297 65.0521 94.3825 64.7624 94.1581 64.5383C93.9337 64.3143 93.6437 64.1675 93.3303 64.1195C93.0168 64.0715 92.6962 64.1246 92.415 64.2711C92.1337 64.4177 91.9066 64.6501 91.7664 64.9345C91.6262 65.219 91.5804 65.5407 91.6355 65.853L81.799 75.6876L80.4828 74.3695L90.3192 64.5349C90.6316 64.5895 90.9533 64.5432 91.2375 64.4026C91.5218 64.2619 91.7538 64.0344 91.8999 63.753C92.046 63.4715 92.0986 63.1508 92.0501 62.8374C92.0016 62.524 91.8544 62.2343 91.63 62.0102C91.4056 61.7862 91.1156 61.6395 90.8022 61.5914C90.4887 61.5434 90.1681 61.5965 89.8869 61.743C89.6057 61.8896 89.3785 62.122 89.2383 62.4064C89.0981 62.6909 89.0523 63.0126 89.1074 63.3249L79.2709 73.1613L69.4364 63.323C69.4914 63.0107 69.4455 62.6889 69.3052 62.4044C69.1648 62.1199 68.9375 61.8876 68.6562 61.7412C68.3748 61.5947 68.0541 61.5418 67.7406 61.59C67.4271 61.6383 67.1371 61.7852 66.9129 62.0095C66.6886 62.2338 66.5416 62.5237 66.4934 62.8372C66.4451 63.1507 66.4981 63.4714 66.6445 63.7528C66.791 64.0342 67.0233 64.2615 67.3078 64.4018C67.5922 64.5421 67.914 64.5881 68.2264 64.533L78.0628 74.3676L76.7447 75.6857L66.9083 65.8493C66.9633 65.5369 66.9174 65.2151 66.7771 64.9306C66.6368 64.6462 66.4094 64.4138 66.1281 64.2674C65.8467 64.1209 65.526 64.068 65.2125 64.1163C64.899 64.1645 64.6091 64.3114 64.3848 64.5357C64.1605 64.76 64.0135 65.05 63.9653 65.3635C63.917 65.677 63.97 65.9977 64.1164 66.279C64.2629 66.5604 64.4952 66.7877 64.7797 66.928C65.0641 67.0683 65.3859 67.1143 65.6983 67.0592L75.5347 76.8938L74.0432 78.3853L64.2087 68.5489C64.2638 68.2366 64.2179 67.9149 64.0777 67.6304C63.9376 67.3459 63.7104 67.1136 63.4292 66.967C63.1479 66.8204 62.8273 66.7673 62.5139 66.8154C62.2004 66.8634 61.9104 67.0101 61.686 67.2342C61.4616 67.4583 61.3145 67.748 61.2659 68.0614C61.2174 68.3748 61.27 68.6955 61.4161 68.9769C61.5623 69.2584 61.7943 69.4859 62.0785 69.6265C62.3628 69.7671 62.6844 69.8135 62.9968 69.7589L72.8314 79.599L62.995 89.4355C62.6827 89.3808 62.3611 89.427 62.0768 89.5675C61.7926 89.708 61.5605 89.9354 61.4143 90.2167C61.268 90.498 61.2153 90.8186 61.2636 91.1319C61.3119 91.4453 61.4588 91.7351 61.683 91.9593C61.9072 92.1835 62.197 92.3304 62.5103 92.3787C62.8237 92.427 63.1443 92.3742 63.4256 92.228C63.7069 92.0818 63.9343 91.8497 64.0748 91.5654C64.2152 91.2812 64.2615 90.9596 64.2068 90.6473L74.0414 80.8109L75.3595 82.1271L65.523 91.9636C65.2108 91.9089 64.8891 91.9551 64.6049 92.0956C64.3207 92.2361 64.0886 92.4635 63.9424 92.7448C63.7961 93.0261 63.7434 93.3467 63.7917 93.66C63.84 93.9734 63.9869 94.2632 64.2111 94.4874C64.4353 94.7115 64.7251 94.8585 65.0384 94.9068C65.3518 94.9551 65.6724 94.9023 65.9537 94.7561C66.235 94.6099 66.4624 94.3778 66.6029 94.0935C66.7433 93.8093 66.7896 93.4877 66.7349 93.1754L76.5713 83.3408L78.0628 84.8323L68.2264 94.6688C67.914 94.6137 67.5922 94.6597 67.3078 94.8C67.0233 94.9403 66.791 95.1676 66.6445 95.449C66.4981 95.7303 66.4451 96.0511 66.4934 96.3646C66.5416 96.678 66.6886 96.968 66.9129 97.1923C67.1371 97.4166 67.4271 97.5635 67.7406 97.6118C68.0541 97.66 68.3748 97.6071 68.6562 97.4606C68.9375 97.3142 69.1648 97.0819 69.3052 96.7974C69.4455 96.5129 69.4914 96.1911 69.4364 95.8788L79.2709 86.0442L89.1074 95.875C89.0523 96.1873 89.0981 96.509 89.2383 96.7935C89.3785 97.078 89.6057 97.3103 89.8869 97.4569C90.1681 97.6035 90.4887 97.6566 90.8022 97.6085C91.1156 97.5605 91.4056 97.4138 91.63 97.1897C91.8544 96.9656 92.0016 96.6759 92.0501 96.3625C92.0986 96.0491 92.046 95.7284 91.8999 95.447C91.7538 95.1655 91.5218 94.938 91.2375 94.7974C90.9533 94.6568 90.6316 94.6104 90.3192 94.665L80.4828 84.8286L81.9743 83.3371L91.8107 93.1735C91.756 93.4858 91.8023 93.8074 91.9428 94.0917C92.0832 94.3759 92.3106 94.608 92.5919 94.7542C92.8733 94.9005 93.1938 94.9532 93.5072 94.9049C93.8205 94.8566 94.1103 94.7097 94.3345 94.4855C94.5587 94.2613 94.7056 93.9715 94.7539 93.6582C94.8023 93.3448 94.7495 93.0242 94.6032 92.7429C94.457 92.4616 94.2249 92.2342 93.9407 92.0937C93.6565 91.9533 93.3349 91.907 93.0226 91.9617L83.1861 82.1253L84.5024 80.8109L94.3388 90.6454C94.2841 90.9577 94.3304 91.2794 94.4708 91.5636C94.6113 91.8478 94.8387 92.0799 95.12 92.2261C95.4013 92.3724 95.7219 92.4251 96.0353 92.3768C96.3486 92.3285 96.6384 92.1816 96.8626 91.9574C97.0868 91.7332 97.2337 91.4434 97.282 91.1301C97.3304 90.8167 97.2776 90.4961 97.1313 90.2148C96.9851 89.9335 96.753 89.7061 96.4688 89.5656C96.1846 89.4252 95.863 89.3789 95.5507 89.4336L95.5488 89.4355ZM81.9724 80.9171L80.7624 82.1271L79.2709 83.6186L77.7794 82.1271L76.5676 80.9171L75.2514 79.599L76.7429 78.1075L77.9547 76.8957L79.2709 75.5794L80.5891 76.8957L81.799 78.1075L83.2905 79.599L81.9724 80.9171Z" fill="white" fill-opacity="0.6"/>
</g>
<path d="M1146.03 111.598C1105.62 64.3477 1034.38 58.6638 986.922 98.9024C939.463 139.141 933.754 210.065 974.17 257.315C1014.59 304.565 1085.82 310.249 1133.28 270.01C1180.74 229.772 1186.45 158.848 1146.03 111.598Z" fill="url(#paint1_radial_1_2)"/>
<path d="M1146.03 111.598C1105.62 64.3477 1034.38 58.6638 986.922 98.9024C939.463 139.141 933.754 210.065 974.17 257.315C1014.59 304.565 1085.82 310.249 1133.28 270.01C1180.74 229.772 1186.45 158.848 1146.03 111.598Z" fill="url(#paint2_radial_1_2)"/>
<g clip-path="url(#clip1_1_2)">
<path d="M1071.52 163.009L1060.5 152.016L1049.49 163.009L1060.5 174.001L1071.52 163.009ZM1060.5 156.179L1067.34 163.009L1060.5 169.838L1053.65 163.009L1060.5 156.179Z" fill="white" fill-opacity="0.6"/>
<path d="M1070.95 184.819L1081.97 195.812L1092.99 184.819L1081.97 173.827L1070.95 184.819ZM1081.97 191.649L1075.13 184.819L1081.97 177.993L1088.82 184.819L1081.97 191.649Z" fill="white" fill-opacity="0.6"/>
<path d="M1050.04 184.819L1039.03 173.827L1028.01 184.819L1039.03 195.812L1050.04 184.819ZM1039.03 177.993L1045.87 184.819L1039.01 191.649L1032.17 184.819L1039.03 177.993Z" fill="white" fill-opacity="0.6"/>
<path d="M1049.48 206.001L1060.49 216.993L1071.51 206.001L1060.49 195.008L1049.48 206.001ZM1060.49 212.83L1053.65 206.001L1060.5 199.172L1067.34 206.001L1060.49 212.83Z" fill="white" fill-opacity="0.6"/>
<path d="M1080.38 196.755L1068.27 184.673L1080.38 172.593C1080.77 172.66 1081.16 172.603 1081.51 172.43C1081.86 172.257 1082.15 171.978 1082.33 171.632C1082.51 171.286 1082.57 170.892 1082.51 170.508C1082.45 170.123 1082.27 169.767 1081.99 169.491C1081.72 169.216 1081.36 169.036 1080.98 168.977C1080.59 168.918 1080.19 168.983 1079.85 169.163C1079.5 169.343 1079.22 169.629 1079.05 169.978C1078.88 170.328 1078.82 170.723 1078.89 171.106L1066.78 183.187L1064.95 181.355L1077.06 169.274C1077.44 169.341 1077.84 169.284 1078.19 169.112C1078.54 168.939 1078.82 168.659 1079 168.314C1079.18 167.968 1079.25 167.574 1079.19 167.189C1079.13 166.804 1078.95 166.448 1078.67 166.173C1078.39 165.898 1078.04 165.718 1077.65 165.659C1077.27 165.6 1076.87 165.665 1076.52 165.845C1076.18 166.025 1075.9 166.31 1075.73 166.66C1075.55 167.009 1075.5 167.404 1075.57 167.788L1063.46 179.868L1061.83 178.249L1073.94 166.169C1074.33 166.236 1074.73 166.179 1075.08 166.006C1075.43 165.834 1075.71 165.554 1075.89 165.208C1076.07 164.863 1076.14 164.469 1076.08 164.084C1076.02 163.699 1075.83 163.343 1075.56 163.068C1075.28 162.792 1074.93 162.612 1074.54 162.553C1074.15 162.494 1073.76 162.559 1073.41 162.739C1073.07 162.92 1072.79 163.205 1072.61 163.554C1072.44 163.904 1072.38 164.299 1072.45 164.683L1060.34 176.765L1048.24 164.68C1048.3 164.297 1048.25 163.901 1048.07 163.552C1047.9 163.202 1047.62 162.917 1047.27 162.737C1046.93 162.557 1046.53 162.492 1046.15 162.552C1045.76 162.611 1045.4 162.791 1045.13 163.067C1044.85 163.342 1044.67 163.698 1044.61 164.084C1044.55 164.469 1044.62 164.863 1044.8 165.208C1044.98 165.554 1045.26 165.833 1045.61 166.005C1045.96 166.178 1046.36 166.234 1046.75 166.167L1058.86 178.247L1057.23 179.866L1045.12 167.783C1045.19 167.4 1045.13 167.004 1044.96 166.655C1044.79 166.306 1044.51 166.02 1044.16 165.84C1043.82 165.66 1043.42 165.595 1043.04 165.655C1042.65 165.714 1042.29 165.894 1042.02 166.17C1041.74 166.445 1041.56 166.802 1041.5 167.187C1041.44 167.572 1041.51 167.966 1041.69 168.311C1041.87 168.657 1042.15 168.936 1042.5 169.108C1042.85 169.281 1043.25 169.337 1043.63 169.27L1055.74 181.35L1053.91 183.182L1041.8 171.099C1041.87 170.716 1041.81 170.321 1041.64 169.971C1041.47 169.622 1041.19 169.336 1040.84 169.156C1040.49 168.976 1040.1 168.911 1039.71 168.97C1039.33 169.029 1038.97 169.209 1038.69 169.485C1038.42 169.76 1038.24 170.116 1038.18 170.501C1038.12 170.886 1038.18 171.28 1038.36 171.625C1038.54 171.971 1038.83 172.25 1039.18 172.423C1039.53 172.596 1039.92 172.653 1040.31 172.586L1052.41 184.673L1040.31 196.755C1039.92 196.688 1039.52 196.745 1039.17 196.918C1038.82 197.09 1038.54 197.37 1038.36 197.715C1038.18 198.061 1038.11 198.454 1038.17 198.839C1038.23 199.224 1038.41 199.58 1038.69 199.856C1038.97 200.131 1039.32 200.311 1039.71 200.371C1040.09 200.43 1040.49 200.365 1040.84 200.186C1041.18 200.006 1041.46 199.721 1041.63 199.372C1041.81 199.023 1041.86 198.628 1041.8 198.244L1053.9 186.161L1055.53 187.778L1043.42 199.861C1043.03 199.794 1042.64 199.85 1042.29 200.023C1041.94 200.196 1041.65 200.475 1041.47 200.82C1041.29 201.166 1041.23 201.56 1041.29 201.945C1041.35 202.33 1041.53 202.686 1041.8 202.961C1042.08 203.236 1042.44 203.417 1042.82 203.476C1043.21 203.536 1043.6 203.471 1043.95 203.291C1044.29 203.111 1044.57 202.826 1044.75 202.477C1044.92 202.128 1044.98 201.733 1044.91 201.349L1057.02 189.269L1058.86 191.101L1046.75 203.184C1046.36 203.116 1045.96 203.173 1045.61 203.345C1045.26 203.517 1044.98 203.797 1044.8 204.142C1044.62 204.488 1044.55 204.882 1044.61 205.267C1044.67 205.652 1044.85 206.008 1045.13 206.284C1045.4 206.559 1045.76 206.74 1046.15 206.799C1046.53 206.858 1046.93 206.793 1047.27 206.613C1047.62 206.433 1047.9 206.148 1048.07 205.798C1048.25 205.449 1048.3 205.054 1048.24 204.67L1060.34 192.59L1072.45 204.666C1072.38 205.049 1072.44 205.444 1072.61 205.794C1072.79 206.143 1073.07 206.429 1073.41 206.609C1073.76 206.789 1074.15 206.854 1074.54 206.795C1074.93 206.736 1075.28 206.556 1075.56 206.28C1075.83 206.005 1076.02 205.649 1076.08 205.264C1076.14 204.879 1076.07 204.485 1075.89 204.14C1075.71 203.794 1075.43 203.514 1075.08 203.342C1074.73 203.169 1074.33 203.112 1073.94 203.179L1061.83 191.097L1063.67 189.265L1075.78 201.347C1075.71 201.731 1075.77 202.126 1075.94 202.475C1076.12 202.824 1076.4 203.109 1076.74 203.289C1077.09 203.468 1077.48 203.533 1077.87 203.474C1078.26 203.415 1078.61 203.234 1078.89 202.959C1079.16 202.683 1079.34 202.327 1079.4 201.942C1079.46 201.558 1079.4 201.164 1079.22 200.818C1079.04 200.473 1078.75 200.193 1078.4 200.021C1078.05 199.848 1077.66 199.791 1077.27 199.859L1065.16 187.776L1066.78 186.161L1078.89 198.242C1078.83 198.625 1078.88 199.02 1079.06 199.37C1079.23 199.719 1079.51 200.004 1079.85 200.183C1080.2 200.363 1080.6 200.428 1080.98 200.368C1081.37 200.309 1081.72 200.129 1082 199.853C1082.28 199.578 1082.46 199.222 1082.52 198.837C1082.58 198.452 1082.51 198.058 1082.33 197.713C1082.15 197.367 1081.87 197.088 1081.52 196.915C1081.17 196.743 1080.77 196.686 1080.39 196.753L1080.38 196.755ZM1063.67 186.292L1062.18 187.778L1060.34 189.61L1058.51 187.778L1057.01 186.292L1055.39 184.673L1057.23 182.841L1058.72 181.352L1060.34 179.735L1061.97 181.352L1063.46 182.841L1065.29 184.673L1063.67 186.292Z" fill="white" fill-opacity="0.6"/>
</g>
<defs>
<radialGradient id="paint0_radial_1_2" cx="0" cy="0" r="1" gradientUnits="userSpaceOnUse" gradientTransform="translate(-15.229 100.979) rotate(-7.1653) scale(166.756 133.352)">
<stop stop-color="#F9FDFF"/>
<stop offset="0.828199" stop-color="#5B4BB9"/>
<stop offset="1" stop-color="#386480"/>
</radialGradient>
<radialGradient id="paint1_radial_1_2" cx="0" cy="0" r="1" gradientUnits="userSpaceOnUse" gradientTransform="translate(974.164 257.926) rotate(-38.8462) scale(258.805 258.564)">
<stop stop-color="#C84F3F"/>
<stop offset="0.692708" stop-color="#C89C41"/>
<stop offset="0.880208" stop-color="white"/>
</radialGradient>
<radialGradient id="paint2_radial_1_2" cx="0" cy="0" r="1" gradientUnits="userSpaceOnUse" gradientTransform="translate(986.305 245.93) rotate(-38.437) scale(241.833 215.168)">
<stop stop-color="#45122B"/>
<stop offset="0.692708" stop-color="#1B1200"/>
<stop offset="0.880208" stop-color="#FFE7D1"/>
</radialGradient>
<clipPath id="clip0_1_2">
<rect width="52.7972" height="52.9165" fill="white" transform="translate(53.0001 53)"/>
</clipPath>
<clipPath id="clip1_1_2">
<rect width="65" height="65" fill="white" transform="translate(1028 152)"/>
</clipPath>
</defs>
</svg>
