<svg xmlns="http://www.w3.org/2000/svg" width="44" height="44" fill="none"><circle cx="22" cy="22" r="21.5" fill="#fff" stroke="#4E1A8B"/><g clip-path="url(#a)"><path fill="url(#b)" d="m32.887 27.852-3.632 3.836a.843.843 0 0 1-.617.264H11.422a.427.427 0 0 1-.387-.25.41.41 0 0 1 .078-.448l3.635-3.837a.843.843 0 0 1 .615-.264h17.215a.426.426 0 0 1 .387.25.411.411 0 0 1-.078.449Zm-3.632-7.726a.841.841 0 0 0-.617-.264H11.422a.426.426 0 0 0-.387.25.41.41 0 0 0 .078.449l3.635 3.837a.843.843 0 0 0 .615.263h17.215a.426.426 0 0 0 .387-.25.411.411 0 0 0-.078-.448l-3.632-3.837ZM11.422 17.37h17.216a.853.853 0 0 0 .617-.263l3.632-3.837a.413.413 0 0 0-.077-.63.427.427 0 0 0-.232-.069H15.363a.855.855 0 0 0-.615.264l-3.634 3.837a.412.412 0 0 0 .077.63.427.427 0 0 0 .23.069Z"/></g><defs><linearGradient id="b" x1="12.857" x2="30.606" y1="32.414" y2="12.101" gradientUnits="userSpaceOnUse"><stop offset=".08" stop-color="#9945FF"/><stop offset=".3" stop-color="#8752F3"/><stop offset=".5" stop-color="#5497D5"/><stop offset=".6" stop-color="#43B4CA"/><stop offset=".72" stop-color="#28E0B9"/><stop offset=".97" stop-color="#19FB9B"/></linearGradient><clipPath id="a"><path fill="#fff" d="M11 12.571h22v19.381H11z"/></clipPath></defs></svg>