<svg xmlns="http://www.w3.org/2000/svg" width="1348" height="1061" fill="none"><path stroke="#fff" stroke-opacity=".16" stroke-width="1.186" d="M530.642 227.484c-56.456-5.835-100.377 5.089-125.65 31.088-25.227 25.95-30.699 65.727-15.475 113.861 15.23 48.148 50.383 102.135 100.533 154.313 50.145 52.172 112.719 99.869 178.878 136.343 66.161 36.476 132.543 59.877 189.763 66.904 57.234 7.031 102.328-2.684 128.99-27.638 13.309-12.468 21.709-28.431 25.059-47.209 3.35-18.787 1.66-40.423-5.21-64.23-13.763-47.626-47.586-101.445-96.74-153.838M600.446 189.827C495.64 143.038 403.573 125.262 340.8 139.616c-31.377 7.176-54.364 22.134-68.362 43.798-13.994 21.657-19.05 50.085-14.451 84.318 9.205 68.504 56.455 155.597 133.348 245.588 76.879 89.973 178.285 176.867 285.958 245.03 107.676 68.164 214.518 113.101 301.291 126.739 43.386 6.819 80.306 5.585 109.396-3.258 29.1-8.842 50.33-25.282 62.41-48.858 12.09-23.575 14.66-53.59 7.98-88.452-6.7-34.865-22.65-74.544-47.56-117.393-49.84-85.697-132.218-178.36-232.33-261.29M14.864 79.612C-59.826 232.88 174.731 558.987 538.761 807.99 902.793 1056.99 1258.44 1134.6 1333.14 981.338c74.69-153.273-159.86-479.379-523.899-728.383C445.209 3.951 89.554-73.657 14.864 79.612Z"/></svg>